<svg xmlns="http://www.w3.org/2000/svg" width="16" height="16">
  <path d="M 1 1 L 0 6 L 1 6 L 1 8.0078125 A 5 5 0 0 1 4 7 A 5 5 0 0 1 6 7.4199219 L 6 6 L 12.5 6 L 14 6 L 14 8 L 14 9 L 14 10 L 15 10 L 15 6 L 16 6 L 16.140625 6 L 14.890625 1 L 14.300781 1 L 12 1 L 1 1 z M 6 2 L 12 2 L 14.109375 2 L 14.859375 5 L 12.5 5 L 5.5 5 L 6 2 z M 4 8 A 4 4 0 0 0 0 12 A 4 4 0 0 0 4 16 A 4 4 0 0 0 8 12 A 4 4 0 0 0 4 8 z M 4 10 A 2 2 0 0 1 6 12 A 2 2 0 0 1 4 14 A 2 2 0 0 1 2 12 A 2 2 0 0 1 4 10 z M 11 11 L 11 16 L 16 16 L 16 11 L 11 11 z M 12 12 L 13 12 L 13 13 L 14 13 L 14 12 L 15 12 L 15 14 L 14 14 L 14 15 L 13 15 L 13 14 L 12 14 L 12 12 z M 8.5800781 14 A 5 5 0 0 1 7.9921875 15 L 10 15 L 10 14 L 9 14 L 8.6015625 14 L 8.5800781 14 z " fill="#c0bfbc" />
  <path d="m 4,10 a 2,2 0 0 0 -2,2 2,2 0 0 0 2,2 2,2 0 0 0 2,-2 2,2 0 0 0 -2,-2 z m 0,1 a 1,1 0 0 1 1,1 1,1 0 0 1 -1,1 1,1 0 0 1 -1,-1 1,1 0 0 1 1,-1 z"
     style="opacity:0.7" fill="#c0bfbc" />
</svg>
