<svg xmlns="http://www.w3.org/2000/svg" width="16" height="16">
  <path d="M 1 3 L 1 13 L 10 13 L 10 12 L 2 12 L 2 4 L 12 4 L 12 5 L 12 10 L 13 10 L 13 5 L 14 5 L 14 10 L 15 10 L 15 4 L 13 4 L 13 3 L 1 3 z M 3 5 L 3 7 L 6 7 L 6 5 L 3 5 z M 7 5 L 7 7 L 11 7 L 11 5 L 7 5 z M 3 8 L 3 9 L 10 9 L 10 8 L 3 8 z M 3 10 L 3 11 L 10 11 L 10 10 L 3 10 z M 11 11 L 11 16 L 16 16 L 16 11 L 11 11 z M 12 12 L 13 12 L 13 13 L 14 13 L 14 12 L 15 12 L 15 14 L 14 14 L 14 15 L 13 15 L 13 14 L 12 14 L 12 12 z " fill="#c0bfbc" />
</svg>
