<svg xmlns="http://www.w3.org/2000/svg" width="16" height="16">
  <path d="M 1 1 L 0 6 L 1 6 L 6 6 L 9 6 L 12.5 6 L 14 6 L 14 8 L 14 9 L 14 10 L 15 10 L 15 6 L 16 6 L 16.140625 6 L 14.890625 1 L 14.300781 1 L 12 1 L 1 1 z M 6 2 L 12 2 L 14.109375 2 L 14.859375 5 L 12.5 5 L 5.5 5 L 6 2 z M 1 7 C 0.446 7 0 7.446 0 8 L 0 15 C 0 15.554 0.446 16 1 16 L 7 16 C 7.554 16 8 15.554 8 15 L 8 8 C 8 7.446 7.554 7 7 7 L 1 7 z M 4 8 C 5.662 8 7 9.338 7 11 C 7 12.662 5.662 14 4 14 L 1 14 L 1 11 C 1 9.338 2.338 8 4 8 z M 4 10 C 3.446 10 3 10.446 3 11 C 3 11.554 3.446 12 4 12 C 4.554 12 5 11.554 5 11 C 5 10.446 4.554 10 4 10 z M 11 11 L 11 16 L 16 16 L 16 11 L 11 11 z M 12 12 L 13 12 L 13 13 L 14 13 L 14 12 L 15 12 L 15 14 L 14 14 L 14 15 L 13 15 L 13 14 L 12 14 L 12 12 z M 9 14 L 9 15 L 10 15 L 10 14 L 9 14 z " fill="#c0bfbc" />
</svg>
