<?xml version="1.0" encoding="UTF-8"?>
<svg width="16" height="16" version="1.1" xmlns="http://www.w3.org/2000/svg">
 <path d="m7 0v5.5859l-1.293-1.293a1 1 0 0 0-0.70703-0.29297h-1v1a1 1 0 0 0 0.29297 0.70703l3.707 3.707 3.707-3.707a1 1 0 0 0 0.29102-0.70703h0.001953v-1h-1a1 1 0 0 0-0.70703 0.29297l-1.293 1.293v-5.5859h-2zm-7 7v4c0 1.108 0.892 2 2 2h3.5l-0.5 2c-0.13436 0.53746 0.446 1 1 1h4v-3-2-1h-8c-0.554 0-1-0.446-1-1v-2h-1zm15.006 0c-0.002342 1.2604-0.005539 2.5168-0.005859 3h1v-3h-0.99414zm-4.0059 4v5h5v-5h-5zm1 1h1v1h1v-1h1v2h-1v1h-1v-1h-1v-2z" fill="#c0bfbc"/>
</svg>
