<?xml version="1.0" encoding="UTF-8"?>
<svg version="1.1" viewBox="0 0 32 32" xmlns="http://www.w3.org/2000/svg" xmlns:cc="http://creativecommons.org/ns#" xmlns:dc="http://purl.org/dc/elements/1.1/" xmlns:rdf="http://www.w3.org/1999/02/22-rdf-syntax-ns#">
<metadata>
<rdf:RDF>
<cc:Work rdf:about="">
<dc:format>image/svg+xml</dc:format>
<dc:type rdf:resource="http://purl.org/dc/dcmitype/StillImage"/>
<dc:creator>
<cc:Agent>
<dc:title>Jakub Steiner</dc:title>
</cc:Agent>
</dc:creator>
<dc:source>http://jimmac.musichall.cz</dc:source>
<cc:license rdf:resource="http://creativecommons.org/licenses/by-sa/2.0/"/>
<dc:title/>
<dc:subject>
<rdf:Bag>
<rdf:li>apparmor</rdf:li>
<rdf:li>novell</rdf:li>
</rdf:Bag>
</dc:subject>
</cc:Work>
<cc:License rdf:about="http://creativecommons.org/licenses/by-sa/2.0/">
<cc:permits rdf:resource="http://web.resource.org/cc/Reproduction"/>
<cc:permits rdf:resource="http://web.resource.org/cc/Distribution"/>
<cc:requires rdf:resource="http://web.resource.org/cc/Notice"/>
<cc:requires rdf:resource="http://web.resource.org/cc/Attribution"/>
<cc:permits rdf:resource="http://web.resource.org/cc/DerivativeWorks"/>
<cc:requires rdf:resource="http://web.resource.org/cc/ShareAlike"/>
</cc:License>
</rdf:RDF>
</metadata>
<g transform="matrix(.5 0 0 .5 0 8)">
<path d="m8-6-6 10 6 2z" fill="#cdab8f"/>
<path d="m56-6 6 10-6 2z" fill="#cdab8f"/>
<rect x="8" y="-6" width="48" height="44" ry="0" fill="#cdab8f"/>
<rect x="8" y="-6" width="48" height="40" ry="0" fill="#dec7b4"/>
<rect x="22" y="-6" width="34" height="40" fill="#73ba25"/>
<rect x="22" y="34" width="34" height="4" fill="#54881b"/>
<path d="m26 24v14h12v-14l-6 4z" fill="#63452c" opacity=".2"/>
<path d="m8-6-2 16h26v-16z" fill="#dec7b4"/>
<path d="m22 10h36l-2-16h-34z" fill="#73ba25"/>
<rect x="6" y="10" width="26" height="2" fill="#cdab8f"/>
<rect x="22" y="10" width="36" height="2" fill="#54881b"/>
</g>
</svg>
