<?xml version="1.0" encoding="UTF-8"?>
<svg width="32" height="32" version="1.1" viewBox="0 0 32 32.000002" xmlns="http://www.w3.org/2000/svg" xmlns:cc="http://creativecommons.org/ns#" xmlns:dc="http://purl.org/dc/elements/1.1/" xmlns:rdf="http://www.w3.org/1999/02/22-rdf-syntax-ns#">
<defs>
<linearGradient id="a" x1="2" x2="30" y1="27" y2="27" gradientTransform="translate(0,-1)" gradientUnits="userSpaceOnUse">
<stop stop-color="#5e5c64" offset="0"/>
<stop stop-color="#9a9996" offset=".035714"/>
<stop stop-color="#5e5c64" offset=".071429"/>
<stop stop-color="#5e5c64" offset=".92857"/>
<stop stop-color="#9a9996" offset=".96429"/>
<stop stop-color="#5e5c64" offset="1"/>
</linearGradient>
</defs>
<metadata>
<rdf:RDF>
<cc:Work rdf:about="">
<dc:format>image/svg+xml</dc:format>
<dc:type rdf:resource="http://purl.org/dc/dcmitype/StillImage"/>
<dc:title/>
</cc:Work>
</rdf:RDF>
</metadata>
<rect x="2" y="6" width="28" height="6" ry="1" fill="#5e5c64"/>
<rect x="2" y="12" width="28" height="6" ry="1" fill="#5e5c64"/>
<rect x="2" y="18" width="28" height="6" ry="1.0587" fill="#5e5c64"/>
<rect x="2" y="23" width="28" height="5" ry="1" fill="url(#a)"/>
<rect x="2" y="3" width="28" height="5" ry="1" fill="#9a9996"/>
<rect x="2" y="9" width="28" height="5" ry="1" fill="#9a9996"/>
<rect x="2" y="15" width="28" height="5" ry="1" fill="#9a9996"/>
<rect x="2" y="21" width="28" height="5" ry="1" fill="#9a9996"/>
<rect x="14" y="4" width="15" height="3" ry="0" fill="#3d3846"/>
<rect x="14" y="5" width="15" height="2" ry="0" fill="#5e5c64"/>
<rect x="14" y="10" width="15" height="3" ry="0" fill="#3d3846"/>
<rect x="14" y="11" width="15" height="2" ry="0" fill="#5e5c64"/>
<rect x="14" y="16" width="15" height="3" ry="0" fill="#3d3846"/>
<rect x="14" y="17" width="15" height="2" ry="0" fill="#5e5c64"/>
<rect x="14" y="22" width="15" height="3" ry="0" fill="#3d3846"/>
<rect x="14" y="23" width="15" height="2" ry="0" fill="#5e5c64"/>
<rect x="4" y="4" width="1" height="2" ry=".5" fill="#5e5c64"/>
<rect x="4" y="5" width="1" height="1" ry=".5" fill="#f6d32d"/>
<rect x="6" y="4" width="1" height="2" ry=".5" fill="#5e5c64"/>
<rect x="6" y="5" width="1" height="1" ry=".5" fill="#33d17a"/>
<rect x="4" y="10" width="1" height="2" ry=".5" fill="#5e5c64"/>
<rect x="4" y="11" width="1" height="1" ry=".5" fill="#33d17a"/>
<rect x="6" y="10" width="1" height="2" ry=".5" fill="#5e5c64"/>
<rect x="6" y="11" width="1" height="1" ry=".5" fill="#e01b24"/>
<rect x="4" y="16" width="1" height="2" ry=".5" fill="#5e5c64"/>
<rect x="4" y="17" width="1" height="1" ry=".5" fill="#e01b24"/>
<rect x="6" y="16" width="1" height="2" ry=".5" fill="#5e5c64"/>
<rect x="6" y="17" width="1" height="1" ry=".5" fill="#f6d32d"/>
<rect x="4" y="22" width="1" height="2" ry=".5" fill="#5e5c64"/>
<rect x="4" y="23" width="1" height="1" ry=".5" fill="#f6d32d"/>
<rect x="6" y="22" width="1" height="2" ry=".5" fill="#5e5c64"/>
<rect x="6" y="23" width="1" height="1" ry=".5" fill="#33d17a"/>
<rect x="15" y="11" width="1" height="2" fill="#3d3846"/>
<rect x="15" y="10" width="1" height="1" fill="#241f31"/>
<rect x="17" y="11" width="1" height="2" fill="#3d3846"/>
<rect x="17" y="10" width="1" height="1" fill="#241f31"/>
<rect x="19" y="11" width="1" height="2" fill="#3d3846"/>
<rect x="19" y="10" width="1" height="1" fill="#241f31"/>
<rect x="21" y="11" width="1" height="2" fill="#3d3846"/>
<rect x="21" y="10" width="1" height="1" fill="#241f31"/>
<rect x="23" y="11" width="1" height="2" fill="#3d3846"/>
<rect x="23" y="10" width="1" height="1" fill="#241f31"/>
<rect x="25" y="11" width="1" height="2" fill="#3d3846"/>
<rect x="25" y="10" width="1" height="1" fill="#241f31"/>
<rect x="27" y="11" width="1" height="2" fill="#3d3846"/>
<rect x="27" y="10" width="1" height="1" fill="#241f31"/>
<rect x="15" y="5" width="1" height="2" fill="#3d3846"/>
<rect x="15" y="4" width="1" height="1" fill="#241f31"/>
<rect x="17" y="5" width="1" height="2" fill="#3d3846"/>
<rect x="17" y="4" width="1" height="1" fill="#241f31"/>
<rect x="19" y="5" width="1" height="2" fill="#3d3846"/>
<rect x="19" y="4" width="1" height="1" fill="#241f31"/>
<rect x="21" y="5" width="1" height="2" fill="#3d3846"/>
<rect x="21" y="4" width="1" height="1" fill="#241f31"/>
<rect x="23" y="5" width="1" height="2" fill="#3d3846"/>
<rect x="23" y="4" width="1" height="1" fill="#241f31"/>
<rect x="25" y="5" width="1" height="2" fill="#3d3846"/>
<rect x="25" y="4" width="1" height="1" fill="#241f31"/>
<rect x="27" y="5" width="1" height="2" fill="#3d3846"/>
<rect x="27" y="4" width="1" height="1" fill="#241f31"/>
<rect x="15" y="17" width="1" height="2" fill="#3d3846"/>
<rect x="15" y="16" width="1" height="1" fill="#241f31"/>
<rect x="17" y="17" width="1" height="2" fill="#3d3846"/>
<rect x="17" y="16" width="1" height="1" fill="#241f31"/>
<rect x="19" y="17" width="1" height="2" fill="#3d3846"/>
<rect x="19" y="16" width="1" height="1" fill="#241f31"/>
<rect x="21" y="17" width="1" height="2" fill="#3d3846"/>
<rect x="21" y="16" width="1" height="1" fill="#241f31"/>
<rect x="23" y="17" width="1" height="2" fill="#3d3846"/>
<rect x="23" y="16" width="1" height="1" fill="#241f31"/>
<rect x="25" y="17" width="1" height="2" fill="#3d3846"/>
<rect x="25" y="16" width="1" height="1" fill="#241f31"/>
<rect x="27" y="17" width="1" height="2" fill="#3d3846"/>
<rect x="27" y="16" width="1" height="1" fill="#241f31"/>
<rect x="15" y="23" width="1" height="2" fill="#3d3846"/>
<rect x="15" y="22" width="1" height="1" fill="#241f31"/>
<rect x="17" y="23" width="1" height="2" fill="#3d3846"/>
<rect x="17" y="22" width="1" height="1" fill="#241f31"/>
<rect x="19" y="23" width="1" height="2" fill="#3d3846"/>
<rect x="19" y="22" width="1" height="1" fill="#241f31"/>
<rect x="21" y="23" width="1" height="2" fill="#3d3846"/>
<rect x="21" y="22" width="1" height="1" fill="#241f31"/>
<rect x="23" y="23" width="1" height="2" fill="#3d3846"/>
<rect x="23" y="22" width="1" height="1" fill="#241f31"/>
<rect x="25" y="23" width="1" height="2" fill="#3d3846"/>
<rect x="25" y="22" width="1" height="1" fill="#241f31"/>
<rect x="27" y="23" width="1" height="2" fill="#3d3846"/>
<rect x="27" y="22" width="1" height="1" fill="#241f31"/>
<rect x="16" y="16" width="16" height="16" ry="1" fill="#f6f5f4"/>
<path d="m19.412 25a2.5 2.5 0 0 0 1.9922 -1h-1.9922a1.5 1.5 0 0 1 -1.4121 -1h-1.0312a2.5 2.5 0 0 0 2.4434 2z" fill="#3d3846"/>
<path d="m22 23a2.5 2.5 0 0 0 -1.9922 1h1.9922a1.5 1.5 0 0 1 1.4121 1h1.0312a2.5 2.5 0 0 0 -2.4434 -2z" fill="#3d3846"/>
<path d="m26 20v1.41l2.59 2.59-2.59 2.59v1.41l4-4z" fill="#3d3846"/>
</svg>
