<?xml version="1.0" encoding="UTF-8" standalone="no"?>
<svg
   xmlns:dc="http://purl.org/dc/elements/1.1/"
   xmlns:cc="http://creativecommons.org/ns#"
   xmlns:rdf="http://www.w3.org/1999/02/22-rdf-syntax-ns#"
   xmlns:svg="http://www.w3.org/2000/svg"
   xmlns="http://www.w3.org/2000/svg"
   xmlns:xlink="http://www.w3.org/1999/xlink"
   version="1.1"
   viewBox="0 0 128 128"
   id="svg34"
   width="128"
   height="128">
  <defs
     id="defs38">
    <linearGradient
       id="linearGradient876">
      <stop
         id="stop872"
         offset="0"
         style="stop-color:#8ff0a4;stop-opacity:1" />
      <stop
         id="stop874"
         offset="1"
         style="stop-color:#81dffe;stop-opacity:1" />
    </linearGradient>
    <linearGradient
       gradientTransform="translate(4,4)"
       gradientUnits="userSpaceOnUse"
       y2="44"
       x2="40"
       y1="20"
       x1="8"
       id="linearGradient878"
       xlink:href="#linearGradient876" />
  </defs>
  <metadata
     id="metadata2">
    <rdf:RDF>
      <cc:Work
         rdf:about="">
        <dc:format>image/svg+xml</dc:format>
        <dc:type
           rdf:resource="http://purl.org/dc/dcmitype/StillImage" />
        <dc:creator>
          <cc:Agent>
            <dc:title>Jakub Steiner</dc:title>
          </cc:Agent>
        </dc:creator>
        <dc:source>http://jimmac.musichall.cz</dc:source>
        <cc:license
           rdf:resource="http://creativecommons.org/licenses/by-sa/2.0/" />
        <dc:title></dc:title>
        <dc:subject>
          <rdf:Bag>
            <rdf:li>apparmor</rdf:li>
            <rdf:li>novell</rdf:li>
          </rdf:Bag>
        </dc:subject>
      </cc:Work>
      <cc:License
         rdf:about="http://creativecommons.org/licenses/by-sa/2.0/">
        <cc:permits
           rdf:resource="http://web.resource.org/cc/Reproduction" />
        <cc:permits
           rdf:resource="http://web.resource.org/cc/Distribution" />
        <cc:requires
           rdf:resource="http://web.resource.org/cc/Notice" />
        <cc:requires
           rdf:resource="http://web.resource.org/cc/Attribution" />
        <cc:permits
           rdf:resource="http://web.resource.org/cc/DerivativeWorks" />
        <cc:requires
           rdf:resource="http://web.resource.org/cc/ShareAlike" />
      </cc:License>
    </rdf:RDF>
  </metadata>
  <path
     id="rect831"
     d="M 108 24 C 99.136 24 92 31.136 92 40 L 92 88 C 92 96.864 99.136 104 108 104 C 116.864 104 124 96.864 124 88 L 124 40 L 124 24 L 108 24 z "
     style="opacity:1;fill:#deddda;fill-opacity:1;stroke:none;stroke-width:4;stroke-linecap:round;stroke-linejoin:round;stroke-miterlimit:4;stroke-dasharray:none;stroke-opacity:1" />
  <path
     id="rect829"
     d="M 4 16 L 4 31.941406 L 4 36 L 4 88.058594 C 4 96.890005 11.109995 104 19.941406 104 L 80 104 L 92.058594 104 L 108 104 L 108 88.058594 L 108 80 L 108 36 L 108 31.941406 L 108 16 L 92.058594 16 L 19.941406 16 L 4 16 z "
     style="opacity:1;fill:#f6f5f4;fill-opacity:1;stroke:none;stroke-width:4;stroke-linecap:round;stroke-linejoin:round;stroke-miterlimit:4;stroke-dasharray:none;stroke-opacity:1" />
  <rect
     y="24"
     x="12"
     height="24"
     width="32"
     id="rect842"
     style="opacity:1;fill:url(#linearGradient878);fill-opacity:1;stroke:none;stroke-width:4;stroke-linecap:round;stroke-linejoin:round;stroke-miterlimit:4;stroke-dasharray:none;stroke-opacity:1" />
  <rect
     y="24"
     x="48"
     height="8"
     width="52"
     id="rect844"
     style="opacity:1;fill:#deddda;fill-opacity:1;stroke:none;stroke-width:4;stroke-linecap:round;stroke-linejoin:round;stroke-miterlimit:4;stroke-dasharray:none;stroke-opacity:1" />
  <rect
     y="36"
     x="48"
     height="4"
     width="52"
     id="rect846"
     style="opacity:1;fill:#deddda;fill-opacity:1;stroke:none;stroke-width:4;stroke-linecap:round;stroke-linejoin:round;stroke-miterlimit:4;stroke-dasharray:none;stroke-opacity:1" />
  <rect
     y="44"
     x="48"
     height="4"
     width="52"
     id="rect848"
     style="opacity:1;fill:#deddda;fill-opacity:1;stroke:none;stroke-width:4;stroke-linecap:round;stroke-linejoin:round;stroke-miterlimit:4;stroke-dasharray:none;stroke-opacity:1" />
  <rect
     y="56"
     x="12"
     height="8"
     width="44"
     id="rect850"
     style="opacity:1;fill:#deddda;fill-opacity:1;stroke:none;stroke-width:4;stroke-linecap:round;stroke-linejoin:round;stroke-miterlimit:4;stroke-dasharray:none;stroke-opacity:1" />
  <rect
     y="72"
     x="12"
     height="4"
     width="64"
     id="rect852"
     style="opacity:1;fill:#deddda;fill-opacity:1;stroke:none;stroke-width:4;stroke-linecap:round;stroke-linejoin:round;stroke-miterlimit:4;stroke-dasharray:none;stroke-opacity:1" />
  <rect
     y="72"
     x="80"
     height="4"
     width="24"
     id="rect854"
     style="opacity:1;fill:#deddda;fill-opacity:1;stroke:none;stroke-width:4;stroke-linecap:round;stroke-linejoin:round;stroke-miterlimit:4;stroke-dasharray:none;stroke-opacity:1" />
  <rect
     y="80"
     x="80"
     height="4"
     width="24"
     id="rect856"
     style="opacity:1;fill:#deddda;fill-opacity:1;stroke:none;stroke-width:4;stroke-linecap:round;stroke-linejoin:round;stroke-miterlimit:4;stroke-dasharray:none;stroke-opacity:1" />
  <rect
     y="88"
     x="80"
     height="4"
     width="20"
     id="rect858"
     style="opacity:1;fill:#deddda;fill-opacity:1;stroke:none;stroke-width:4;stroke-linecap:round;stroke-linejoin:round;stroke-miterlimit:4;stroke-dasharray:none;stroke-opacity:1" />
  <rect
     y="80"
     x="12"
     height="4"
     width="64"
     id="rect864"
     style="opacity:1;fill:#deddda;fill-opacity:1;stroke:none;stroke-width:4;stroke-linecap:round;stroke-linejoin:round;stroke-miterlimit:4;stroke-dasharray:none;stroke-opacity:1" />
  <rect
     y="88"
     x="12"
     height="4"
     width="64"
     id="rect866"
     style="opacity:1;fill:#deddda;fill-opacity:1;stroke:none;stroke-width:4;stroke-linecap:round;stroke-linejoin:round;stroke-miterlimit:4;stroke-dasharray:none;stroke-opacity:1" />
  <rect
     y="96"
     x="16"
     height="4"
     width="52"
     id="rect868"
     style="opacity:1;fill:#deddda;fill-opacity:1;stroke:none;stroke-width:4;stroke-linecap:round;stroke-linejoin:round;stroke-miterlimit:4;stroke-dasharray:none;stroke-opacity:1" />
  <path
     style="opacity:1;fill:#77767b;fill-opacity:1;stroke:none;stroke-width:16;stroke-linecap:round;stroke-linejoin:round;stroke-miterlimit:4;stroke-dasharray:none;stroke-opacity:1"
     d="M 64,39 A 22,22 0 0 0 42,61 22,22 0 0 0 64,83 22,22 0 0 0 78.070312,77.898436 l 4.031252,4.031252 a 4.0004,4.0004 0 0 0 1.070312,3.898432 l 12.000004,12 a 4.0004,4.0004 0 1 0 5.65624,-5.65624 l -12,-12.000004 a 4.0004,4.0004 0 0 0 -2.867184,-1.21094 4.0004,4.0004 0 0 0 -1.031248,0.14064 L 80.890624,75.0625 A 22,22 0 0 0 86,61 22,22 0 0 0 64,39 Z m 0,4 A 18,18 0 0 1 82,61 18,18 0 0 1 64,79 18,18 0 0 1 46,61 18,18 0 0 1 64,43 Z"
     id="path847-3" />
  <path
     style="opacity:1;fill:#9a9996;fill-opacity:1;stroke:none;stroke-width:16;stroke-linecap:round;stroke-linejoin:round;stroke-miterlimit:4;stroke-dasharray:none;stroke-opacity:1"
     d="M 64,36 A 22,22 0 0 0 42,58 22,22 0 0 0 64,80 22,22 0 0 0 78.070312,74.898436 l 4.031252,4.031252 a 4.0004,4.0004 0 0 0 1.070312,3.898436 l 12,12 a 4.0004,4.0004 0 1 0 5.656244,-5.656248 l -11.999996,-12 a 4.0004,4.0004 0 0 0 -2.867188,-1.21094 4.0004,4.0004 0 0 0 -1.031248,0.14064 L 80.890624,72.0625 A 22,22 0 0 0 86,58 22,22 0 0 0 64,36 Z m 0,4 A 18,18 0 0 1 82,58 18,18 0 0 1 64,76 18,18 0 0 1 46,58 18,18 0 0 1 64,40 Z"
     id="path847" />
  <path
     style="opacity:0.2;fill:#3584e4;fill-opacity:1;stroke:none;stroke-width:16;stroke-linecap:round;stroke-linejoin:round;stroke-miterlimit:4;stroke-dasharray:none;stroke-opacity:1"
     d="M 64,40 A 18,18 0 0 0 46,58 18,18 0 0 0 64,76 18,18 0 0 0 82,58 18,18 0 0 0 64,40 Z"
     id="path852" />
  <path
     style="opacity:0.2;fill:#ffffff;fill-opacity:1;stroke:none;stroke-width:16;stroke-linecap:round;stroke-linejoin:round;stroke-miterlimit:4;stroke-dasharray:none;stroke-opacity:1"
     d="M 64,40 A 18,18 0 0 0 46,58 18,18 0 0 0 51.281248,70.718752 L 76.718752,45.281248 A 18,18 0 0 0 64,40 Z"
     id="path852-3" />
  <path
     id="path952"
     d="m 108,104 8,-80 h -8 z"
     style="opacity:0.2;fill:#000000;fill-opacity:1;stroke:none;stroke-width:1px;stroke-linecap:butt;stroke-linejoin:miter;stroke-opacity:1" />
</svg>
