<svg width="128" height="128" version="1.0" viewBox="0 0 128 128" xmlns="http://www.w3.org/2000/svg">
 <defs>
  <linearGradient id="linearGradient1397" x1="70" x2="70" y1="116" y2="100" gradientUnits="userSpaceOnUse">
   <stop stop-color="#deddda" offset="0"/>
   <stop stop-color="#a2a098" offset="1"/>
  </linearGradient>
  <linearGradient id="linearGradient1342" x1="12" x2="116" y1="86" y2="86" gradientUnits="userSpaceOnUse">
   <stop stop-color="#d7d5d2" offset="0"/>
   <stop stop-color="#ecebea" offset=".038462"/>
   <stop stop-color="#cfcdc9" offset=".076856"/>
   <stop stop-color="#d1cfcc" offset=".92308"/>
   <stop stop-color="#ecebea" offset=".96154"/>
   <stop stop-color="#d0cecb" offset="1"/>
  </linearGradient>
 </defs>
 <path d="m54 92a8.0008 8.0008 0 0 0-7.9375 7.0078l-1 8a8.0008 8.0008 0 0 0 7.9375 8.9922h22a8.0008 8.0008 0 0 0 7.9375-8.9922l-1-8a8.0008 8.0008 0 0 0-7.9375-7.0078z" fill="url(#linearGradient1397)"/>
 <path d="m116 64v28c0 4.432-3.568 8-8 8h-88c-4.432 0-8-3.568-8-8v-28h104z" fill="url(#linearGradient1342)"/>
 <path d="m116 64-0.0898 27.143c-0.55242 3.8856-3.8672 6.8574-7.9102 6.8574h-88c-4.432 0-8-3.568-8-8v-26h104z" fill="#f6f5f4"/>
 <path d="m35.457 52.217c9.9097-0.0835 19.543 1.5332 28.543 3.7832 16 4 34 6 52 0v30h-104v-30c7.875-2.625 15.75-3.7183 23.457-3.7832z" fill="#241f31"/>
 <path d="m35.367 52.217c9.9097-0.0835 19.543 1.5332 28.543 3.7832 14.841 3.7103 31.403 5.6879 48.09 1.168v20.832c0 2.216-1.784 4-4 4h-88c-2.216 0-4-1.784-4-4v-23.215c6.5072-1.7445 12.994-2.5147 19.367-2.5684z" fill="#4a86cf"/>
 <path d="m63.939 13.943a4.0004 4.0004 0 0 0-3.9395 4.0566v38.344l-13.15-13.15c-0.72461-0.73576-1.7306-1.1934-2.8496-1.1934h-4v4c0 1.119 0.4576 2.125 1.1934 2.8496l19.627 19.627a4.0004 4.0004 0 0 0 0.76172 0.76172l2.418 2.418 2.4199-2.4199a4.0004 4.0004 0 0 0 0.77148-0.77149l19.615-19.615c0.73576-0.72461 1.1934-1.7306 1.1934-2.8496v-4h-4c-1.119 0-2.125 0.4576-2.8496 1.1934l-13.15 13.15v-38.344a4.0004 4.0004 0 0 0-4.0605-4.0566z" fill="#26a269"/>
 <path d="m63.939 11.943a4.0004 4.0004 0 0 0-3.9395 4.0566v38.344l-13.15-13.15c-0.72461-0.73576-1.7306-1.1934-2.8496-1.1934h-4v4c0 1.119 0.4576 2.125 1.1934 2.8496l19.627 19.627a4.0004 4.0004 0 0 0 0.76172 0.76172l2.418 2.418 2.4199-2.4199a4.0004 4.0004 0 0 0 0.77148-0.77149l19.615-19.615c0.73576-0.72461 1.1934-1.7306 1.1934-2.8496v-4h-4c-1.119 0-2.125 0.4576-2.8496 1.1934l-13.15 13.15v-38.344a4.0004 4.0004 0 0 0-4.0605-4.0566z" fill="#33d17a"/>
</svg>
