<?xml version="1.0" encoding="UTF-8"?>
<svg version="1.1" viewBox="0 0 128 128" xmlns="http://www.w3.org/2000/svg">
<defs>
<linearGradient id="a" x1="2" x2="30" y1="17" y2="17" gradientUnits="userSpaceOnUse">
<stop stop-color="#c0bfbc" offset="0"/>
<stop stop-color="#c0bfbc" offset=".14286"/>
<stop stop-color="#deddda" offset=".25"/>
<stop stop-color="#c0bfbc" offset=".5"/>
<stop stop-color="#c0bfbc" offset="1"/>
</linearGradient>
</defs>
<g transform="matrix(2,0,0,2,0,32)">
<path d="m8-6-6 10 6 2z" fill="#cdab8f"/>
<path d="m56-6 6 10-6 2z" fill="#cdab8f"/>
<rect x="8" y="-6" width="48" height="44" ry="0" fill="#cdab8f"/>
<rect x="8" y="-6" width="48" height="40" ry="0" fill="#dec7b4"/>
<rect x="22" y="-6" width="34" height="40" fill="#73ba25"/>
<rect x="22" y="34" width="34" height="4" fill="#54881b"/>
<path d="m26 24v14h12v-14l-6 4z" fill="#63452c" opacity=".2"/>
<path d="m8-6-2 16h26v-16z" fill="#dec7b4"/>
<path d="m22 10h36l-2-16h-34z" fill="#73ba25"/>
<rect x="6" y="10" width="26" height="2" fill="#cdab8f"/>
<rect x="22" y="10" width="36" height="2" fill="#54881b"/>
</g>
<g transform="matrix(2,0,0,2,64,62)">
<path d="m16 3c-7.732 0-14 6.268-14 14s6.268 14 14 14 14-6.268 14-14-6.268-14-14-14zm0 9a5 5 0 0 1 5 5 5 5 0 0 1 -5 5 5 5 0 0 1 -5 -5 5 5 0 0 1 5 -5z" fill="url(#a)"/>
<path d="m16 2c-7.732 0-14 6.268-14 14s6.268 14 14 14 14-6.268 14-14-6.268-14-14-14zm0 9a5 5 0 0 1 5 5 5 5 0 0 1 -5 5 5 5 0 0 1 -5 -5 5 5 0 0 1 5 -5z" fill="#deddda"/>
<path d="m16 11a5 5 0 0 0 -5 5 5 5 0 0 0 5 5 5 5 0 0 0 5 -5 5 5 0 0 0 -5 -5zm0 3a2 2 0 0 1 2 2 2 2 0 0 1 -2 2 2 2 0 0 1 -2 -2 2 2 0 0 1 2 -2z" fill="#c0bfbc"/>
<path d="m16 2v9a5 5 0 0 1 3.5332 1.4668l6.3672-6.3672c-2.5335-2.5335-6.0344-4.0996-9.9004-4.0996zm-3.5332 17.533-6.3672 6.3672c2.5335 2.5335 6.0344 4.0996 9.9004 4.0996v-9a5 5 0 0 1 -3.5332 -1.4668z" fill="#f6f5f4" opacity=".5"/>
<path d="m16 10a6 6 0 0 0 -6 6 6 6 0 0 0 6 6 6 6 0 0 0 6 -6 6 6 0 0 0 -6 -6zm0 1a5 5 0 0 1 5 5 5 5 0 0 1 -5 5 5 5 0 0 1 -5 -5 5 5 0 0 1 5 -5z" fill="#9a9996"/>
<circle cx="22" cy="22" r="0" fill="#3d3846"/>
</g>
</svg>
